<?xml version="1.0" standalone="no"?>
<!DOCTYPE svg PUBLIC "-//W3C//DTD SVG 20010904//EN"
 "http://www.w3.org/TR/2001/REC-SVG-20010904/DTD/svg10.dtd">
<svg version="1.0" xmlns="http://www.w3.org/2000/svg"
 width="225.000000pt" height="225.000000pt" viewBox="0 0 225.000000 225.000000"
 preserveAspectRatio="xMidYMid meet">
<metadata>
Created by potrace 1.10, written by Peter Selinger 2001-2011
</metadata>
<g transform="translate(0.000000,225.000000) scale(0.100000,-0.100000)"
fill="#000000" stroke="none">
<path d="M705 1629 c-237 -154 -459 -298 -493 -320 -35 -22 -62 -42 -60 -43 1
-2 28 0 58 3 51 6 87 28 475 280 231 151 427 280 437 288 15 13 27 7 120 -55
56 -38 254 -167 438 -287 307 -200 340 -220 390 -226 51 -6 80 -2 54 8 -12 4
-803 517 -911 591 -34 23 -66 42 -70 42 -4 0 -201 -126 -438 -281z"/>
<path d="M610 1387 c-29 -15 -40 -61 -16 -70 9 -4 16 -2 16 3 0 6 -4 10 -10
10 -16 0 -11 37 6 44 24 9 64 7 64 -3 0 -5 -9 -37 -19 -70 -10 -34 -16 -61
-11 -61 4 0 15 29 25 65 18 68 23 72 73 54 22 -7 36 -7 49 0 15 9 14 10 -12
11 -16 0 -52 7 -79 15 -59 18 -55 18 -86 2z"/>
<path d="M691 1338 c-5 -14 -13 -43 -17 -64 -6 -36 -6 -38 9 -25 13 10 20 11
30 2 7 -6 27 -10 43 -10 16 0 41 -1 56 -2 32 -2 88 19 88 32 0 5 -13 3 -30 -6
-34 -17 -97 -22 -67 -4 19 11 23 29 7 29 -6 0 -24 -10 -41 -22 -25 -19 -33
-20 -50 -10 -11 7 -24 10 -29 7 -15 -9 -12 0 11 40 16 26 19 39 11 47 -8 8
-14 4 -21 -14z"/>
<path d="M357 1128 c-15 -49 -30 -88 -33 -88 -4 0 -18 10 -33 23 -26 21 -27
25 -15 57 7 19 12 46 12 60 0 16 -6 6 -17 -29 -17 -52 -20 -55 -64 -66 -49
-12 -90 -41 -81 -56 3 -5 27 -9 55 -9 52 0 55 -3 39 -44 -5 -14 -6 -26 -1 -26
11 0 21 25 21 50 0 12 9 19 30 22 17 3 30 0 30 -6 0 -6 5 -4 10 4 12 19 12 13
1 -27 -5 -18 -6 -35 -2 -38 5 -2 13 14 20 35 9 32 16 40 36 40 13 0 27 5 31
11 5 8 -1 10 -20 7 -32 -6 -32 1 -6 78 11 32 19 66 17 74 -2 8 -15 -24 -30
-72z m-116 -61 c-1 -4 -1 -14 -1 -22 0 -11 -12 -15 -50 -15 -27 0 -50 5 -50
10 0 6 1 10 3 10 1 0 20 7 42 15 41 14 57 15 56 2z"/>
<path d="M1670 1115 c-5 -14 -10 -33 -10 -41 0 -9 -11 -14 -35 -14 -19 0 -35
-4 -35 -9 0 -5 17 -7 38 -4 38 5 39 5 34 -25 -9 -66 46 -95 100 -53 24 19 24
19 36 0 16 -26 81 -25 132 1 l40 20 0 -20 c0 -25 35 -27 49 -3 9 17 10 17 28
0 11 -9 30 -17 44 -17 25 0 95 37 86 46 -2 3 -21 -5 -41 -17 -39 -23 -80 -20
-90 6 -3 8 6 37 19 64 29 56 32 81 9 81 -18 0 -44 -57 -44 -97 0 -30 -24 -73
-41 -73 -18 0 -8 31 13 39 15 5 18 10 9 15 -6 4 -17 3 -24 -2 -7 -6 -15 -11
-19 -12 -4 0 -27 -10 -50 -20 -45 -21 -66 -24 -92 -14 -23 9 -19 21 9 28 28 7
33 24 11 32 -8 3 -35 -8 -59 -25 -61 -42 -92 -48 -106 -22 -7 11 -9 32 -5 46
5 22 11 25 50 25 25 0 44 5 44 11 0 7 -15 10 -40 7 -36 -3 -39 -2 -33 17 10
32 9 48 -4 52 -7 3 -17 -7 -23 -22z m395 -40 c-8 -21 -18 -36 -21 -33 -3 3 2
23 11 43 8 21 18 36 21 33 3 -3 -2 -23 -11 -43z"/>
<path d="M845 1107 c-8 -13 -19 -44 -24 -70 -9 -49 -27 -80 -42 -72 -12 8 1
35 18 35 8 0 12 4 8 10 -3 5 -25 -1 -50 -15 -50 -29 -77 -31 -95 -10 -15 18
-42 19 -59 3 -10 -11 -11 -10 -5 5 7 19 -1 18 -63 -14 -32 -16 -40 -17 -57 -5
-11 7 -23 24 -26 37 l-6 24 -27 -27 c-15 -15 -27 -32 -27 -37 0 -19 21 -23 39
-7 16 15 19 15 31 1 17 -21 49 -19 88 5 l32 20 0 -22 0 -21 25 23 25 23 23
-21 c27 -26 38 -27 77 -7 25 13 29 13 34 0 7 -19 30 -19 46 0 12 14 15 14 30
0 21 -19 57 -19 92 -1 23 12 29 12 39 0 17 -21 93 -17 140 7 54 27 44 35 -12
9 -51 -23 -102 -26 -118 -7 -8 11 -6 18 9 32 17 15 22 16 36 4 15 -12 17 -12
12 1 -8 26 -36 22 -77 -10 -45 -37 -97 -45 -114 -18 -9 13 -6 27 11 63 34 70
24 118 -13 62z"/>
<path d="M1527 1041 c-12 -29 -27 -44 -60 -60 -52 -25 -76 -19 -84 20 -5 26
-7 27 -27 17 -11 -7 -23 -13 -26 -14 -3 0 -22 -8 -42 -17 -21 -10 -49 -17 -63
-17 -22 0 -25 3 -19 24 5 21 3 24 -15 19 -17 -4 -21 -1 -21 18 0 22 -1 22 -17
7 -14 -14 -14 -20 -3 -33 7 -9 19 -14 27 -11 7 3 13 -1 13 -8 0 -36 41 -40
113 -11 12 5 17 2 17 -9 0 -20 18 -21 40 -1 15 14 18 14 30 0 17 -21 49 -19
89 6 26 16 32 17 28 5 -15 -38 -19 -114 -7 -121 21 -13 31 17 26 75 l-5 55 61
0 c42 0 63 4 66 13 3 11 0 12 -16 3 -24 -13 -89 -15 -96 -3 -3 5 4 21 15 38
23 35 24 44 5 44 -8 0 -21 -17 -29 -39z"/>
<path d="M940 864 c-6 -15 -18 -54 -27 -86 -9 -32 -20 -58 -24 -58 -4 0 -19
10 -33 23 -25 23 -25 24 -10 72 8 27 12 54 10 60 -4 12 -11 -4 -26 -62 -9 -37
-14 -43 -38 -43 -35 0 -97 -33 -97 -51 0 -10 16 -15 53 -17 56 -3 56 -3 35
-59 -3 -7 -1 -13 5 -13 5 0 13 16 16 35 4 20 13 35 21 35 7 0 20 3 29 6 13 5
16 -2 16 -36 0 -48 15 -46 24 5 6 31 11 35 36 35 17 0 30 5 30 11 0 7 -10 9
-26 5 -21 -6 -25 -4 -21 7 18 48 47 151 42 155 -2 3 -9 -8 -15 -24z m-132
-126 c-3 -20 -10 -23 -52 -26 -59 -4 -60 17 0 35 54 16 56 16 52 -9z m41 -2
c9 -11 8 -15 -5 -20 -23 -9 -24 -8 -24 14 0 23 13 26 29 6z"/>
<path d="M982 690 c-25 -23 -30 -60 -8 -60 7 0 19 7 26 15 11 13 14 13 27 0
20 -20 41 -19 85 5 37 19 37 19 43 0 7 -21 30 -27 40 -10 3 5 15 6 28 1 23 -9
70 1 91 18 8 7 16 4 24 -10 16 -26 80 -25 132 1 l40 20 0 -22 0 -21 25 23 25
23 23 -21 c13 -12 30 -22 38 -22 20 0 79 38 79 51 0 6 -12 1 -26 -10 -32 -25
-67 -27 -85 -5 -7 9 -22 14 -36 11 -13 -2 -23 -1 -23 4 0 10 -18 6 -70 -19
-53 -25 -79 -27 -106 -7 -19 14 -19 14 2 15 12 0 27 7 34 15 23 28 -15 28 -55
0 -67 -45 -123 -48 -117 -6 3 16 -1 22 -10 19 -7 -3 -13 -12 -13 -21 0 -9 -6
-22 -12 -28 -9 -9 -13 -6 -18 14 l-7 25 -51 -23 c-65 -30 -97 -17 -88 38 2 13
-15 7 -37 -13z"/>
</g>
</svg>
